<svg xmlns="http://www.w3.org/2000/svg" viewBox="0 0 420 560" role="img" aria-labelledby="title desc">
  <title id="title">Aiko, a cheerful anime-style cat lady companion</title>
  <desc id="desc">
    Illustration of a cat-eared young woman with long dark hair, soft pink pajamas,
    and a swishing tail, sitting warmly with a gentle smile.
  </desc>
  <defs>
    <linearGradient id="hairGradient" x1="0%" x2="100%" y1="0%" y2="100%">
      <stop offset="0%" stop-color="#1f2335" />
      <stop offset="60%" stop-color="#15192c" />
      <stop offset="100%" stop-color="#0c0f1d" />
    </linearGradient>
    <linearGradient id="skinGradient" x1="40%" x2="60%" y1="0%" y2="100%">
      <stop offset="0%" stop-color="#ffe2d7" />
      <stop offset="100%" stop-color="#f2c5b8" />
    </linearGradient>
    <radialGradient id="blushGradient" cx="50%" cy="50%" r="50%">
      <stop offset="0%" stop-color="#f7a6b3" />
      <stop offset="100%" stop-color="rgba(247,166,179,0)" />
    </radialGradient>
    <linearGradient id="pajamaGradient" x1="0%" y1="0%" x2="0%" y2="100%">
      <stop offset="0%" stop-color="#f8cfe2" />
      <stop offset="100%" stop-color="#f2aac7" />
    </linearGradient>
    <pattern id="pajamaDots" width="18" height="18" patternUnits="userSpaceOnUse">
      <circle cx="9" cy="9" r="4" fill="rgba(255,255,255,0.35)" />
    </pattern>
    <filter id="softShadow" x="-20%" y="-20%" width="140%" height="140%">
      <feDropShadow dx="0" dy="12" stdDeviation="12" flood-color="rgba(15,10,22,0.45)" />
    </filter>
  </defs>
  <rect width="100%" height="100%" rx="48" fill="#0f1423" />
  <g filter="url(#softShadow)">
    <ellipse cx="210" cy="470" rx="120" ry="40" fill="rgba(12,12,22,0.45)" />
  </g>
  <g transform="translate(40,40)">
    <g id="tail" transform="translate(240 360)">
      <path
        d="M60 60 C 90 10, 170 30, 170 100 C 170 170, 100 200, 40 170 C 10 150, -10 120, 20 110"
        fill="none"
        stroke="#1e2032"
        stroke-width="24"
        stroke-linecap="round"
        stroke-linejoin="round"
      />
      <path
        d="M60 60 C 95 15, 150 30, 150 95 C 150 150, 95 175, 46 152 C 22 140, 6 116, 32 110"
        fill="none"
        stroke="#2c3047"
        stroke-width="12"
        stroke-linecap="round"
        stroke-linejoin="round"
      />
    </g>
    <g id="body" transform="translate(40 120)">
      <path
        d="M80 90 C 30 130, 20 260, 60 320 C 110 390, 250 390, 300 320 C 340 260, 330 130, 280 90 C 240 60, 140 60, 80 90 Z"
        fill="url(#pajamaGradient)"
      />
      <path
        d="M80 90 C 30 130, 20 260, 60 320 C 110 390, 250 390, 300 320 C 340 260, 330 130, 280 90"
        fill="none"
        stroke="rgba(255,255,255,0.35)"
        stroke-width="3"
      />
      <path
        d="M130 140 C 120 180, 120 240, 140 280 C 160 320, 220 320, 240 280 C 260 240, 260 180, 250 140"
        fill="rgba(255,255,255,0.12)"
      />
      <g fill="url(#pajamaDots)">
        <path d="M96 140 C 70 190, 70 270, 100 320 C 140 370, 220 370, 260 320 C 290 270, 290 190, 264 140" />
      </g>
      <path
        d="M100 340 C 90 380, 120 410, 150 420 C 190 435, 240 430, 270 405 C 290 385, 300 360, 286 332"
        fill="#0f1423"
        opacity="0.35"
      />
    </g>
    <g id="arms" transform="translate(40 180)">
      <path
        d="M90 120 C 40 150, 60 240, 120 250 C 150 255, 170 240, 170 210"
        fill="none"
        stroke="url(#skinGradient)"
        stroke-width="26"
        stroke-linecap="round"
      />
      <path
        d="M250 120 C 300 150, 280 240, 220 250 C 190 255, 170 240, 170 210"
        fill="none"
        stroke="url(#skinGradient)"
        stroke-width="26"
        stroke-linecap="round"
      />
      <circle cx="120" cy="248" r="16" fill="url(#skinGradient)" />
      <circle cx="220" cy="248" r="16" fill="url(#skinGradient)" />
    </g>
    <g id="head" transform="translate(70 0)">
      <path
        d="M190 100 C 190 155, 150 200, 110 200 C 70 200, 30 155, 30 100 C 30 40, 70 0, 110 0 C 150 0, 190 40, 190 100 Z"
        fill="url(#skinGradient)"
      />
      <g id="ears">
        <path d="M54 -16 C 34 -52, 10 -56, 0 -18 C 10 -10, 26 4, 42 14" fill="#1f2335" />
        <path d="M160 -16 C 180 -52, 204 -56, 214 -18 C 204 -10, 188 4, 172 14" fill="#1f2335" />
        <path d="M50 -16 C 36 -40, 18 -42, 10 -18 C 20 -12, 32 -2, 42 6" fill="#f5b6c4" opacity="0.8" />
        <path d="M164 -16 C 178 -40, 196 -42, 204 -18 C 194 -12, 182 -2, 172 6" fill="#f5b6c4" opacity="0.8" />
      </g>
      <g id="hair">
        <path
          d="M10 70 C 0 10, 80 -40, 140 -30 C 210 -20, 220 50, 216 120 C 212 190, 230 250, 190 260 C 150 270, 70 250, 50 210 C 30 170, 20 120, 10 70 Z"
          fill="url(#hairGradient)"
        />
        <path
          d="M210 170 C 210 220, 210 270, 170 290 C 150 300, 130 300, 90 280 C 50 260, 40 210, 40 150"
          fill="url(#hairGradient)"
        />
      </g>
      <ellipse cx="70" cy="122" rx="18" ry="22" fill="#1a2134" />
      <ellipse cx="150" cy="122" rx="18" ry="22" fill="#1a2134" />
      <circle cx="66" cy="118" r="6" fill="#fff" opacity="0.85" />
      <circle cx="146" cy="118" r="6" fill="#fff" opacity="0.85" />
      <path
        d="M86 160 C 104 170, 120 170, 134 160"
        stroke="#c7779f"
        stroke-width="6"
        stroke-linecap="round"
        fill="none"
      />
      <path
        d="M78 144 Q 110 152 142 144"
        stroke="#c7779f"
        stroke-width="4"
        stroke-linecap="round"
        fill="none"
        opacity="0.55"
      />
      <ellipse cx="82" cy="146" rx="28" ry="18" fill="url(#blushGradient)" opacity="0.8" />
      <ellipse cx="138" cy="146" rx="28" ry="18" fill="url(#blushGradient)" opacity="0.8" />
    </g>
  </g>
</svg>
